<svg width="606" height="598" xmlns="http://www.w3.org/2000/svg">
  <path d="M0 0h605.24v597.2H0V0Z" fill="url(#a)" />
  <path
    d="M319.06 155.21c-25.92 0-144.67.11-171.04.14a5.2 5.2 0 0 0-5.2 5.21v53.68a5.2 5.2 0 0 0 5.21 5.21c24.46-.04 120.19.27 158.21.27 38.02 0 79.17 28.81 79.17 78.7s-42.89 79.5-78.16 79.5l-30.79.01a5.2 5.2 0 0 1-5.21-5.21V247.4a5.2 5.2 0 0 0-5.21-5.21h-66.72a5.2 5.2 0 0 0-5.21 5.21v189.69a4.9 4.9 0 0 0 4.89 4.89h72.26s19.17-.02 47.81-.02c74.35 0 143.35-60.95 143.35-141.42 0-96.89-78.8-145.33-143.35-145.33"
    fill="#fff" />
  <defs>
    <linearGradient id="a" x1="0" y1="0" x2="605.24" y2="597.2" gradientUnits="userSpaceOnUse">
      <stop stop-color="#67C7DE" />
      <stop offset=".5" stop-color="#8D49E3" />
      <stop offset="1" stop-color="#67C7DE" />
    </linearGradient>
  </defs>
</svg>